# xmcd
#
# Track frame offsets:
#	150
#	9655
#	22857
#	33607
#	47992
#	59867
#	71302
#	85977
#	97655
#	110512
#	122662
#	133517
#	147532
#	160990
#	174117
#	184937
#
# Disc length: 2637 seconds
#
# Revision: 2
# Processed by: cddbd v1.4PL0 Copyright (c) Steve Scherf et al.
# Submitted via: MusicWizard 6.0.2
#
DISCID=d90a4b10
DTITLE=Frankie Lane - High Noon
DYEAR=1987
DGENRE=Country
TTITLE0=Rawhide
TTITLE1=Moonlight Gambler
TTITLE2=I Believe
TTITLE3=Don't Fence Me In
TTITLE4=Strange Lady In Town
TTITLE5=Rose, Rose, I Love You
TTITLE6=There Must Be A Reason
TTITLE7=Answer Me (Mutterlein)
TTITLE8=High Noon
TTITLE9=Mule Train
TTITLE10=Sixteen Tons
TTITLE11=Still Runs Cool Water
TTITLE12=Wheel Of Fortune
TTITLE13=Rain, Rain, Rain
TTITLE14=A Woman In Love
TTITLE15=Cry Of The Wild Goose
EXTD=
EXTT0=
EXTT1=
EXTT2=
EXTT3=
EXTT4=
EXTT5=
EXTT6=
EXTT7=
EXTT8=
EXTT9=
EXTT10=
EXTT11=
EXTT12=
EXTT13=
EXTT14=
EXTT15=
PLAYORDER=
